<?xml version="1.0" encoding="utf-8"?>
<!-- Generator: Adobe Illustrator 24.3.0, SVG Export Plug-In . SVG Version: 6.00 Build 0)  -->
<svg version="1.1" id="Layer_1" xmlns="http://www.w3.org/2000/svg" xmlns:xlink="http://www.w3.org/1999/xlink" x="0px" y="0px"
	 viewBox="0 0 32 32" enable-background="new 0 0 32 32" xml:space="preserve">
<g>
	<path fill="#999999" d="M15,11.381V3h2v8.381c0.356,0.089,0.689,0.229,1,0.408V2.75C18,2.474,17.776,2,17.5,2h-3C14.224,2,14,2.474,14,2.75v9.038
		C14.311,11.61,14.644,11.47,15,11.381z"/>
	<path fill="#999999" d="M18.667,29.75h-5.333c-1.011,0-1.833-0.822-1.833-1.833V15.21c0-2.459,2-4.46,4.46-4.46c2.54,0,4.54,2,4.54,4.46v12.707
		C20.5,28.928,19.678,29.75,18.667,29.75z M16.04,11.75c-1.988,0-3.54,1.552-3.54,3.46v12.707c0,0.459,0.374,0.833,0.833,0.833
		h5.333c0.459,0,0.833-0.374,0.833-0.833V15.21C19.5,13.302,17.948,11.75,16.04,11.75z"/>
	<rect fill="#999999" x="14" y="4" width="3" height="1"/>
	<path fill="#999999" d="M14.5,26H12c-0.276,0-0.5-0.224-0.5-0.5S11.724,25,12,25h2v-7h-2c-0.276,0-0.5-0.224-0.5-0.5S11.724,17,12,17h2.5
		c0.276,0,0.5,0.474,0.5,0.75v8C15,26.026,14.776,26,14.5,26z"/>
</g>
</svg>
